<?xml version="1.0" standalone="no"?>
<!DOCTYPE svg PUBLIC "-//W3C//DTD SVG 20010904//EN"
 "http://www.w3.org/TR/2001/REC-SVG-20010904/DTD/svg10.dtd">
<svg version="1.0" xmlns="http://www.w3.org/2000/svg"
 width="260.000000pt" height="260.000000pt" viewBox="0 0 260.000000 260.000000"
 preserveAspectRatio="xMidYMid meet">
<metadata>
Created by potrace 1.11, written by Peter Selinger 2001-2013
</metadata>
<g transform="translate(0.000000,260.000000) scale(0.100000,-0.100000)"
fill="#000000" stroke="none">
<path d="M1159 2566 c-2 -3 -27 -7 -54 -11 -77 -8 -201 -43 -291 -80 -399
-165 -686 -520 -764 -946 -15 -82 -19 -138 -16 -259 2 -85 6 -166 10 -180 3
-14 8 -38 12 -55 90 -443 438 -820 879 -953 170 -51 409 -65 585 -35 156 27
346 102 477 189 l52 34 37 -25 c120 -82 272 56 205 186 l-22 41 39 52 c281
373 341 853 160 1279 -166 390 -532 678 -953 750 -76 14 -346 23 -356 13z
m321 -40 c14 -3 51 -11 83 -17 283 -51 590 -260 762 -518 118 -177 176 -333
205 -546 8 -63 5 -282 -4 -325 -3 -13 -8 -42 -11 -65 -10 -67 -73 -245 -116
-325 -56 -105 -152 -236 -170 -231 -58 15 -99 12 -138 -9 -51 -29 -73 -74 -70
-141 2 -27 -1 -53 -7 -59 -25 -25 -185 -113 -253 -139 -160 -62 -279 -84 -451
-85 -196 -1 -355 31 -518 105 -347 157 -633 505 -698 849 -2 14 -7 31 -10 39
-17 50 -24 301 -11 411 13 109 66 279 120 386 48 95 146 231 221 306 200 203
427 319 706 362 74 12 312 13 360 2z"/>
<path d="M809 2311 c-100 -33 -153 -137 -123 -242 l14 -45 -68 -70 c-186 -190
-275 -423 -265 -697 14 -405 298 -756 699 -863 190 -50 416 -34 598 44 286
123 483 361 552 667 23 105 23 283 -1 390 -17 78 -63 205 -93 255 -82 136
-149 213 -255 293 -121 91 -242 146 -392 178 -82 17 -285 15 -363 -3 l-62 -15
-16 26 c-27 46 -89 82 -147 86 -28 3 -64 1 -78 -4z m603 -115 c300 -35 583
-245 711 -527 193 -428 21 -935 -395 -1162 -69 -38 -187 -81 -248 -91 -19 -3
-46 -8 -60 -11 -31 -7 -199 -7 -248 1 -262 38 -508 203 -645 432 -48 79 -100
212 -111 282 -3 19 -8 46 -11 60 -7 34 -7 196 0 245 27 180 116 363 238 492
71 75 78 78 123 48 20 -14 44 -25 53 -26 9 0 27 -2 41 -3 14 -2 45 3 70 10 76
22 130 97 130 178 0 42 2 46 28 52 15 3 41 9 57 13 17 5 66 9 110 10 44 1 82
4 84 6 2 3 7 3 10 1 3 -2 31 -7 63 -10z"/>
<path d="M1258 1925 c-2 -2 -23 -5 -48 -8 -137 -18 -244 -72 -348 -176 -83
-82 -128 -158 -159 -264 -50 -171 -28 -349 63 -501 35 -58 35 -59 19 -98 -20
-52 -19 -83 6 -128 42 -75 134 -96 208 -47 l39 26 59 -19 c171 -57 369 -38
519 51 74 43 183 152 223 223 202 353 25 801 -361 913 -65 19 -210 37 -220 28z
m177 -50 c265 -67 455 -306 455 -572 0 -100 -15 -164 -62 -262 -74 -156 -221
-273 -398 -317 -85 -21 -231 -14 -315 15 l-60 21 3 53 c4 68 -22 111 -83 138
-44 19 -87 19 -125 -1 -14 -8 -23 -2 -43 28 -60 86 -94 196 -96 312 -6 282
197 534 474 590 67 13 187 11 250 -5z"/>
<path d="M1215 1577 c-208 -69 -271 -327 -118 -480 58 -59 116 -82 203 -82 87
0 145 23 203 82 59 58 82 116 82 203 -1 120 -57 210 -162 261 -54 26 -153 34
-208 16z"/>
</g>
</svg>
